<?xml version="1.0" encoding="UTF-8" standalone="no"?>
<svg xmlns="http://www.w3.org/2000/svg" height="40px" width="143px" version="1.1" xmlns:xlink="http://www.w3.org/1999/xlink" viewBox="0 0 143 40"><!-- Generator: Sketch 44.1 (41455) - http://www.bohemiancoding.com/sketch -->
 <title>easybuy-colour-logo</title>
 <desc>Created with Sketch.</desc>
 <g id="Brand-listing" fill-rule="evenodd" fill="none">
  <g id="easybuy-colour-logo">
   <polygon id="Stroke-1" fill-rule="nonzero" points="8.3297 5.1091 24.879 21.659 8.1893 38.347 0.00003653 30.159 0.00003653 13.439" fill="#FEFEFE"/>
   <polygon id="Fill-3" points="8.3297 5.7853 0.47821 13.637 0.47821 29.961 8.1893 37.671 24.202 21.659" fill="#ED1C24"/>
   <g id="Group-32" transform="translate(0 .13516)">
    <path id="Stroke-4" fill-rule="nonzero" fill="#FEFEFE" d="m34.731 19.201v-2.481c0-0.897-0.356-1.655-1.087-2.302-0.742-0.657-1.685-0.985-2.856-0.985-1.107 0-2.048 0.226-2.824 0.668-0.485 0.291-0.689 0.531-0.689 0.675 0 0.013 0.02 0.077 0.071 0.176 0.067 0.133 0.176 0.301 0.329 0.505 0.449 0.62 0.685 1.196 0.685 1.734 0 0.74-0.247 1.365-0.737 1.846-0.489 0.48-1.129 0.72-1.89 0.72-0.809 0-1.501-0.282-2.05-0.839-0.548-0.554-0.824-1.27-0.824-2.116 0-1.52 0.843-2.889 2.478-4.091 1.61-1.183 3.705-1.771 6.27-1.771 2.381 0 4.227 0.522 5.525 1.584 1.307 1.085 1.974 2.425 1.974 3.991v10.481c0 0.839 0.13 1.432 0.371 1.783 0.213 0.321 0.456 0.461 0.768 0.461 0.42 0 0.884-0.181 1.393-0.56l0.411-0.307 1.218 1.9-0.265 0.272c-1.082 1.11-2.308 1.677-3.658 1.677-1.033 0-1.92-0.286-2.641-0.86-0.585-0.465-1.094-1.193-1.537-2.182-1.127 1.119-2.141 1.89-3.05 2.312-1.048 0.488-2.298 0.73-3.743 0.73-2.068 0-3.667-0.452-4.787-1.377-1.133-0.936-1.709-2.157-1.709-3.623 0-2.185 1.275-3.987 3.754-5.382 2.314-1.302 5.348-2.179 9.1-2.639zm-6.602 4.491c-0.955 0.725-1.428 1.743-1.428 3.099 0 0.937 0.24 1.641 0.71 2.139 0.467 0.494 1.07 0.739 1.842 0.739 1.479 0 2.751-0.556 3.842-1.685 1.092-1.13 1.636-2.542 1.636-4.264v-2.191c-3.106 0.473-5.31 1.201-6.602 2.163z"/>
    <path id="Fill-6" fill="#ED1C24" d="m35.209 20.977c-3.466 0.478-5.921 1.256-7.369 2.334-1.078 0.819-1.617 1.98-1.617 3.48 0 1.052 0.28 1.874 0.841 2.468 0.559 0.591 1.288 0.888 2.189 0.888 1.611 0 3.005-0.609 4.186-1.83 1.18-1.222 1.77-2.754 1.77-4.597v-2.743zm6.715 8.086l0.736 1.148c-0.996 1.022-2.101 1.533-3.316 1.533-0.927 0-1.709-0.251-2.343-0.756-0.635-0.505-1.191-1.392-1.669-2.662-1.296 1.365-2.436 2.276-3.418 2.732-0.982 0.458-2.164 0.686-3.541 0.686-1.965 0-3.459-0.422-4.483-1.268-1.023-0.846-1.535-1.932-1.535-3.254 0-1.994 1.17-3.649 3.511-4.965 2.339-1.316 5.454-2.193 9.343-2.631v-2.906c0-1.036-0.416-1.924-1.248-2.661-0.833-0.737-1.889-1.105-3.173-1.105-1.187 0-2.21 0.246-3.071 0.737-0.613 0.368-0.92 0.729-0.92 1.085 0 0.204 0.163 0.525 0.491 0.962 0.396 0.545 0.593 1.031 0.593 1.453 0 0.615-0.197 1.116-0.593 1.505-0.396 0.388-0.915 0.583-1.555 0.583-0.683 0-1.252-0.232-1.71-0.697-0.457-0.463-0.685-1.057-0.685-1.78 0-1.351 0.76-2.586 2.282-3.705 1.521-1.118 3.517-1.678 5.987-1.678 2.279 0 4.019 0.491 5.22 1.474 1.201 0.996 1.8 2.203 1.8 3.622v10.481c0 0.928 0.151 1.609 0.452 2.047 0.299 0.451 0.689 0.675 1.166 0.675 0.532 0 1.092-0.218 1.679-0.655z"/>
    <path id="Stroke-8" fill-rule="nonzero" fill="#FEFEFE" d="m45.113 32.059h-1.757l-0.461-8.591h2.212l0.113 0.316c0.819 2.286 1.751 3.851 2.772 4.696 1.011 0.834 2.258 1.253 3.759 1.253 1.384 0 2.423-0.296 3.127-0.866 0.687-0.559 1.02-1.245 1.02-2.096 0-0.48-0.119-0.887-0.356-1.235-0.24-0.35-0.573-0.612-1.007-0.789-0.478-0.194-1.812-0.502-3.952-0.906-2.116-0.416-3.608-0.858-4.486-1.339-0.894-0.492-1.595-1.174-2.097-2.042-0.5-0.864-0.751-1.807-0.751-2.819 0-1.518 0.511-2.901 1.525-4.133 1.311-1.573 3.149-2.362 5.472-2.362 1.635 0 3.162 0.477 4.569 1.424l1.21-1.282h1.489l0.608 7.793h-2.242l-0.104-0.336c-0.577-1.857-1.344-3.174-2.289-3.96-0.936-0.779-2.093-1.169-3.488-1.169-1.191 0-2.1 0.283-2.744 0.836-0.635 0.545-0.942 1.189-0.942 1.962 0 0.654 0.272 1.185 0.849 1.635 0.588 0.479 1.835 0.888 3.715 1.19 2.3 0.389 3.797 0.715 4.514 0.988 1.207 0.442 2.153 1.131 2.826 2.062 0.676 0.939 1.012 2.076 1.012 3.401 0 1.83-0.726 3.391-2.16 4.655-1.423 1.252-3.227 1.877-5.389 1.877-1.867 0-3.611-0.574-5.218-1.714l-1.349 1.551z"/>
    <path id="Fill-10" fill="#ED1C24" d="m44.77 23.946c0.846 2.361 1.819 3.994 2.917 4.903 1.099 0.906 2.454 1.362 4.064 1.362 1.487 0 2.63-0.326 3.429-0.973 0.797-0.649 1.196-1.471 1.196-2.467 0-0.574-0.146-1.075-0.44-1.506-0.294-0.429-0.701-0.749-1.221-0.961-0.519-0.211-1.866-0.522-4.04-0.932-2.077-0.408-3.527-0.84-4.347-1.289-0.819-0.45-1.456-1.071-1.914-1.862s-0.687-1.651-0.687-2.58c0-1.405 0.472-2.682 1.415-3.827 1.215-1.459 2.917-2.19 5.104-2.19 1.667 0 3.211 0.525 4.632 1.576l1.353-1.433h0.84l0.534 6.836h-1.372c-0.602-1.937-1.415-3.333-2.44-4.186s-2.291-1.279-3.794-1.279c-1.3 0-2.318 0.318-3.056 0.951-0.739 0.635-1.108 1.411-1.108 2.325 0 0.805 0.342 1.474 1.025 2.006 0.67 0.545 1.983 0.976 3.938 1.291 2.269 0.383 3.745 0.705 4.429 0.965 1.12 0.411 1.988 1.042 2.602 1.893 0.615 0.853 0.922 1.892 0.922 3.121 0 1.69-0.666 3.122-1.998 4.296-1.333 1.172-3.023 1.758-5.073 1.758-1.899 0-3.663-0.626-5.289-1.883l-1.495 1.72h-1.086l-0.411-7.635h1.371z"/>
    <path id="Stroke-12" fill-rule="nonzero" fill="#FEFEFE" d="m61.159 15.348c-0.222-0.472-0.493-0.812-0.807-1.027-0.318-0.218-0.817-0.377-1.494-0.463l-0.418-0.053v-2.292h10.147v2.349h-1.338c-0.714 0-1.178 0.089-1.368 0.227-0.166 0.119-0.242 0.277-0.242 0.523 0 0.107 0.025 0.215 0.079 0.331l4.885 10.537 3.554-8.556c0.262-0.626 0.392-1.233 0.392-1.821 0-0.352-0.124-0.597-0.391-0.786-0.305-0.215-1.029-0.38-2.132-0.456l-0.445-0.031v-2.317h8.939v2.305l-0.432 0.042c-1.376 0.134-2.259 0.721-2.718 1.78l-7.097 16.508c-1.229 2.861-2.475 4.846-3.755 5.956-1.313 1.137-2.739 1.713-4.263 1.713-1.136 0-2.073-0.319-2.786-0.962-0.722-0.649-1.091-1.468-1.091-2.423 0-0.734 0.237-1.358 0.708-1.847 0.473-0.49 1.075-0.739 1.777-0.739 0.64 0 1.196 0.217 1.641 0.645 0.447 0.431 0.678 0.964 0.678 1.573 0 0.188-0.031 0.424-0.091 0.712-0.05 0.187-0.071 0.303-0.072 0.35 0.038 0.009 0.09 0.015 0.157 0.015 0.356 0 0.786-0.139 1.285-0.426 0.497-0.288 0.976-0.764 1.43-1.431 0.462-0.682 1.285-2.207 2.449-4.545l-7.181-15.391z"/>
    <path id="Fill-14" fill="#ED1C24" d="m58.918 11.991h9.191v1.393h-0.86c-0.806 0-1.355 0.105-1.648 0.317-0.294 0.212-0.44 0.515-0.44 0.911 0 0.178 0.041 0.355 0.123 0.532l5.343 11.525 3.971-9.561c0.285-0.681 0.429-1.35 0.429-2.005 0-0.505-0.198-0.897-0.594-1.177-0.396-0.279-1.187-0.461-2.374-0.542v-1.393h7.983v1.393c-1.542 0.15-2.579 0.84-3.111 2.067l-7.097 16.508c-1.205 2.804-2.415 4.731-3.629 5.783-1.229 1.064-2.546 1.597-3.95 1.597-1.024 0-1.847-0.281-2.467-0.84-0.621-0.559-0.932-1.249-0.932-2.067 0-0.614 0.192-1.119 0.574-1.515s0.859-0.593 1.433-0.593c0.518 0 0.955 0.17 1.309 0.512 0.354 0.341 0.532 0.75 0.532 1.228 0 0.149-0.027 0.355-0.081 0.614-0.055 0.204-0.082 0.356-0.082 0.45 0 0.327 0.212 0.491 0.635 0.491 0.449 0 0.958-0.164 1.525-0.491 0.565-0.326 1.095-0.854 1.586-1.576 0.49-0.723 1.352-2.325 2.583-4.806l-7.278-15.602c-0.258-0.546-0.582-0.952-0.97-1.218-0.388-0.265-0.955-0.447-1.704-0.542v-1.393z"/>
    <path id="Stroke-16" fill-rule="nonzero" fill="#FEFEFE" d="m80.788 31.781l-0.213 0.233-1.526-0.535 0.102-0.421c0.374-1.532 0.56-3.131 0.56-4.799v-21.676c0-0.5288-0.173-0.9168-0.528-1.2054-0.377-0.3053-0.937-0.4658-1.695-0.4658h-1.338v-2.469l7.937-0.3954v13.406c0.609-0.668 1.264-1.204 1.965-1.605 1.056-0.604 2.21-0.908 3.451-0.908 2.39 0 4.425 0.941 6.069 2.803 1.637 1.854 2.453 4.286 2.453 7.276 0 3.234-0.873 5.866-2.624 7.878-1.762 2.02-3.965 3.039-6.574 3.039-1.243 0-2.379-0.247-3.401-0.743-0.877-0.426-1.764-1.096-2.665-2.01-0.675 1.032-1.332 1.897-1.973 2.598zm7.978-18.062c-1.385 0-2.498 0.595-3.378 1.816-0.899 1.244-1.363 3.371-1.363 6.374 0 2.85 0.456 4.862 1.336 6.031 0.864 1.147 1.973 1.709 3.364 1.709 1.229 0 2.2-0.544 2.96-1.668 1.005-1.492 1.516-3.658 1.516-6.502 0-2.797-0.448-4.802-1.312-6.007-0.849-1.181-1.878-1.753-3.123-1.753z"/>
    <path id="Fill-18" fill="#00A550" d="m88.766 13.24c-1.542 0-2.798 0.672-3.766 2.015-0.969 1.342-1.453 3.561-1.453 6.654 0 2.943 0.477 5.05 1.432 6.319 0.955 1.266 2.204 1.9 3.746 1.9 1.393 0 2.51-0.627 3.357-1.88 1.065-1.582 1.597-3.839 1.597-6.769 0-2.889-0.468-4.985-1.402-6.286-0.935-1.302-2.106-1.953-3.511-1.953zm-5.157-12.69v14.265c0.804-1.138 1.698-1.989 2.68-2.552 0.982-0.562 2.054-0.844 3.214-0.844 2.251 0 4.156 0.88 5.711 2.64 1.555 1.761 2.333 4.08 2.333 6.96 0 3.125-0.836 5.645-2.507 7.563-1.672 1.917-3.743 2.876-6.213 2.876-1.173 0-2.237-0.232-3.192-0.695-0.955-0.464-1.938-1.248-2.947-2.352-0.779 1.241-1.529 2.256-2.253 3.047l-0.819-0.287c0.382-1.569 0.573-3.206 0.573-4.912v-21.676c0-0.669-0.235-1.1943-0.705-1.5769-0.472-0.382-1.137-0.5725-1.996-0.5725h-0.86v-1.5358l6.981-0.34781z"/>
    <path id="Stroke-20" fill-rule="nonzero" fill="#FEFEFE" d="m111.53 30.848c-1.23 0.723-2.48 1.088-3.76 1.088-1.85 0-3.42-0.628-4.68-1.874-1.3-1.253-1.93-3.318-1.93-6.178v-8.33c0-0.578-0.21-0.986-0.66-1.282-0.31-0.206-1.081-0.343-2.265-0.369l-0.468-0.011v-2.355l7.753-0.396v13.213c0 1.447 0.35 2.531 1.05 3.279 0.69 0.746 1.57 1.115 2.68 1.115 1.38 0 2.55-0.554 3.53-1.687 0.99-1.145 1.49-2.579 1.49-4.322v-7.185c0-0.512-0.17-0.878-0.52-1.146-0.37-0.284-1.2-0.467-2.44-0.505l-0.46-0.015v-2.351l7.69-0.397v16.245c0 0.598 0.16 1.03 0.46 1.322 0.32 0.297 0.77 0.451 1.39 0.451h1.69v2.318l-7.36 0.164-0.34-3.136c-0.94 0.995-1.89 1.776-2.85 2.344z"/>
    <path id="Fill-22" fill="#00A550" d="m105.04 11.644v12.71c0 1.558 0.39 2.758 1.18 3.604 0.78 0.846 1.79 1.269 3.03 1.269 1.53 0 2.82-0.617 3.89-1.853 1.07-1.234 1.6-2.78 1.6-4.635v-7.185c0-0.656-0.23-1.164-0.7-1.525-0.47-0.362-1.38-0.564-2.71-0.604v-1.434l6.73-0.347v15.741c0 0.723 0.21 1.28 0.61 1.669 0.41 0.388 0.99 0.582 1.72 0.582h1.21v1.372l-6.45 0.144-0.41-3.767c-1.14 1.35-2.29 2.367-3.45 3.051-1.16 0.682-2.33 1.022-3.52 1.022-1.73 0-3.18-0.579-4.35-1.74-1.18-1.147-1.78-3.091-1.78-5.834v-8.33c0-0.737-0.29-1.297-0.88-1.68-0.41-0.272-1.246-0.421-2.515-0.449v-1.434l6.795-0.347z"/>
    <path id="Stroke-24" fill-rule="nonzero" fill="#FEFEFE" d="m123.38 15.349c-0.23-0.474-0.5-0.814-0.81-1.029-0.32-0.216-0.82-0.376-1.5-0.462l-0.42-0.053v-2.292h10.15v2.349h-1.34c-0.71 0-1.17 0.089-1.36 0.227-0.17 0.119-0.24 0.275-0.24 0.523 0 0.11 0.02 0.217 0.07 0.331l4.89 10.537 3.55-8.557c0.26-0.625 0.39-1.231 0.39-1.82 0-0.352-0.12-0.598-0.39-0.786-0.3-0.215-1.03-0.38-2.13-0.456l-0.44-0.031v-2.317h8.94v2.305l-0.44 0.042c-1.37 0.134-2.26 0.721-2.71 1.78l-7.1 16.508c-1.23 2.861-2.48 4.846-3.76 5.956-1.31 1.137-2.74 1.713-4.26 1.713-1.14 0-2.07-0.319-2.79-0.962-0.72-0.649-1.09-1.468-1.09-2.423 0-0.735 0.24-1.36 0.71-1.846 0.47-0.49 1.08-0.74 1.78-0.74 0.64 0 1.19 0.217 1.64 0.646 0.45 0.43 0.68 0.963 0.68 1.572 0 0.187-0.03 0.421-0.09 0.71-0.05 0.19-0.08 0.306-0.08 0.352 0.04 0.009 0.09 0.015 0.16 0.015 0.36 0 0.79-0.139 1.29-0.426 0.49-0.288 0.97-0.764 1.43-1.432 0.46-0.677 1.27-2.193 2.44-4.544l-7.17-15.39z"/>
    <path id="Fill-26" fill="#00A550" d="m121.13 11.991h9.19v1.393h-0.86c-0.8 0-1.35 0.105-1.64 0.317-0.3 0.212-0.44 0.515-0.44 0.911 0 0.178 0.04 0.355 0.12 0.532l5.34 11.525 3.97-9.561c0.29-0.681 0.43-1.35 0.43-2.005 0-0.505-0.2-0.897-0.59-1.177-0.4-0.279-1.19-0.461-2.38-0.542v-1.393h7.99v1.393c-1.55 0.15-2.58 0.84-3.11 2.067l-7.1 16.508c-1.2 2.804-2.42 4.731-3.63 5.783-1.23 1.064-2.54 1.597-3.95 1.597-1.02 0-1.85-0.281-2.47-0.84s-0.93-1.249-0.93-2.067c0-0.614 0.19-1.119 0.58-1.515 0.38-0.396 0.85-0.593 1.43-0.593 0.51 0 0.95 0.17 1.31 0.512 0.35 0.341 0.53 0.75 0.53 1.228 0 0.149-0.03 0.355-0.08 0.614-0.06 0.204-0.08 0.356-0.08 0.45 0 0.327 0.21 0.491 0.63 0.491 0.45 0 0.96-0.164 1.53-0.491 0.56-0.326 1.09-0.854 1.58-1.576 0.49-0.723 1.35-2.325 2.59-4.806l-7.28-15.602c-0.26-0.546-0.59-0.952-0.97-1.218-0.39-0.265-0.96-0.447-1.71-0.542v-1.393z"/>
    <path id="Stroke-30" fill-rule="nonzero" fill="#FEFEFE" d="m5.2109 27.796c1.12 1.289 2.5295 1.927 4.2651 1.927 2.568 0 4.633-1.463 6.232-4.458l0.207-0.388 2.247 0.968-0.234 0.456c-2.134 4.151-5.265 6.258-9.3384 6.258-2.7802 0-5.1348-1.011-7.0323-3.022-0.58187-0.615-1.0776-1.303-1.4979-2.066l-0.059418-0.107-2.65e-7 -11.394 0.054517-0.104c0.41152-0.786 0.89179-1.49 1.4519-2.113 1.8715-2.078 4.1931-3.125 6.9341-3.125 2.0105 0 3.7625 0.521 5.2415 1.566 1.474 1.043 2.58 2.536 3.317 4.466 0.515 1.351 0.784 3.038 0.813 5.063l0.007 0.485h-14.164c0.1136 2.652 0.6436 4.517 1.5559 5.588zm6.5271-8.043c0.367 0 0.623-0.112 0.811-0.342 0.198-0.243 0.315-0.731 0.315-1.461 0-1.433-0.441-2.637-1.327-3.632-0.876-0.986-1.8838-1.466-3.0548-1.466-1.3107 0-2.4164 0.583-3.3503 1.78-0.8856 1.136-1.3846 2.841-1.4793 5.121h8.0854z"/>
   </g>
  </g>
 </g>
</svg>
